<?xml version="1.0" encoding="utf-8"?>
<!-- Generator: Adobe Illustrator 27.2.0, SVG Export Plug-In . SVG Version: 6.00 Build 0)  -->
<svg version="1.1" id="Layer_1" xmlns="http://www.w3.org/2000/svg" xmlns:xlink="http://www.w3.org/1999/xlink" x="0px" y="0px"
	 viewBox="0 0 338.4 214.2" style="enable-background:new 0 0 338.4 214.2;" xml:space="preserve">
<style type="text/css">
	.st0{fill:#FFFFFF;}
	.st1{fill-rule:evenodd;clip-rule:evenodd;fill:#FFFFFF;}
	.st2{fill:#E6E6E6;}
	.st3{fill:#231F20;}
	.st4{fill-rule:evenodd;clip-rule:evenodd;fill:#231F20;}
	.st5{fill:#D80812;}
	.st6{fill-rule:evenodd;clip-rule:evenodd;fill:#D80812;}
	.st7{fill:#810812;}
</style>
<g>
	<g>
		<g>
			<path class="st5" d="M98.5,170.6l-6.8-10.8h-0.1v10.8h-6.4v-25h6.4v11.2h0.1l7.1-11.2h6.7L97.2,158l8.8,12.5H98.5z"/>
			<path class="st5" d="M108.5,170.6v-25h13.9v5.6h-7.8v3.9h7.5v5.6h-7.5v4.3h7.8v5.6H108.5z"/>
			<path class="st5" d="M126.3,170.6v-25h13.9v5.6h-7.8v3.9h7.5v5.6h-7.5v4.3h7.8v5.6H126.3z"/>
			<path class="st5" d="M160.3,160.6c-2.2,1.9-4.5,2.2-7.3,2.2h-2.8v7.8h-6.1v-25h8.2c2.6,0,5.6,0.1,7.7,1.8c2,1.7,2.9,4.1,2.9,6.6
				C163,156.3,162.1,159,160.3,160.6z M152.6,151.2h-2.4v5.9h2.6c2.1,0,4-0.5,4-3C156.8,151.5,154.7,151.2,152.6,151.2z"/>
			<path class="st5" d="M176.1,170.6v-25h6.4v25H176.1z"/>
			<path class="st5" d="M196.4,151.2v19.4H190v-19.4h-4.9v-5.6h16.2v5.6H196.4z"/>
			<path class="st5" d="M221.9,171c-5,0-9-2.6-9-7.9v-0.8h6.3c0,1.6,0.7,3.4,2.6,3.4c1.3,0,2.4-1,2.4-2.4c0-1.6-1.4-2.2-2.7-2.7
				c-0.7-0.3-1.5-0.6-2.2-0.9c-3.2-1.4-6.1-3.2-6.1-7.2c0-4.7,4.5-7.4,8.7-7.4c2.4,0,5.2,0.9,6.8,2.8c1.3,1.6,1.6,3,1.7,4.9h-6.3
				c-0.2-1.4-0.7-2.4-2.3-2.4c-1.1,0-2.2,0.8-2.2,2c0,0.4,0,0.7,0.2,1c0.6,1,3.9,2.3,4.9,2.8c3.3,1.5,5.8,3.2,5.8,7.2
				C230.6,168.6,226.8,171,221.9,171z"/>
			<path class="st5" d="M233.6,170.6v-25h6.4v25H233.6z"/>
			<path class="st5" d="M265,170.6l0.2-18.7l-0.1-0.1l-5.3,18.8h-4.2l-5.3-18.8l-0.1,0.1l0.2,18.7h-5.9v-25h8.2l5,16.4h0.1l4.9-16.4
				h8.2v25H265z"/>
			<path class="st5" d="M291.6,160.6c-2.2,1.9-4.5,2.2-7.3,2.2h-2.8v7.8h-6.1v-25h8.2c2.6,0,5.6,0.1,7.7,1.8c2,1.7,2.9,4.1,2.9,6.6
				C294.3,156.3,293.4,159,291.6,160.6z M283.9,151.2h-2.4v5.9h2.6c2.1,0,4-0.5,4-3C288.1,151.5,286,151.2,283.9,151.2z"/>
			<path class="st5" d="M297.1,170.6v-25h6.4V165h7.4v5.6H297.1z"/>
			<path class="st5" d="M313.4,170.6v-25h13.9v5.6h-7.8v3.9h7.5v5.6h-7.5v4.3h7.8v5.6H313.4z"/>
			<path class="st5" d="M90.8,202.5c-4.4,0-7.6-2.9-7.7-7.4h2.5c0.1,3.1,2.1,5.2,5.2,5.2c2.8,0,5-2.2,5-5c0-3.4-2.8-4.5-5.6-5.3
				c-3.5-1-6.5-2.3-6.5-6.6c0-4,3.2-6.7,7-6.7s6.9,2.9,6.9,6.8h-2.5c0-2.4-2-4.5-4.4-4.5c-2.5,0-4.5,1.8-4.5,4.4
				c0,3.3,3.4,3.9,5.9,4.7c3.6,1.1,6.1,3.3,6.1,7.2C98.3,199.3,94.9,202.5,90.8,202.5z"/>
			<path class="st5" d="M107.6,179.3v22.7h-2.5v-22.7h-5.7v-2.3h13.9v2.3H107.6z"/>
			<path class="st5" d="M128.2,202.5c-7,0-13.2-5.7-13.2-12.8c0-7.3,5.9-13.1,13.2-13.1c7.2,0,13.2,5.7,13.2,12.9
				C141.4,196.8,135.3,202.5,128.2,202.5z M128.2,178.9c-5.9,0-10.7,4.9-10.7,10.8c0,5.8,5,10.5,10.7,10.5c5.8,0,10.7-4.8,10.7-10.6
				C138.9,183.7,134.1,178.9,128.2,178.9z"/>
			<path class="st5" d="M154.8,192.7l7.1,9.3h-3.1l-8.5-11.3c1.6,0,3.8,0.1,5.4-0.4c2.4-0.7,4.1-2.7,4.1-5.3c0-1.9-1-3.9-2.7-4.8
				c-1.6-0.8-3.1-0.9-4.9-0.9h-4.4v22.7h-2.5v-25h6.3c1.9,0,4.4,0.1,6.1,0.9c2.8,1.4,4.5,4,4.5,7.1
				C162.2,189.4,159,192.5,154.8,192.7z"/>
			<path class="st5" d="M185.3,202.1l-3.6-8.4h-11.6l-3.6,8.4h-2.6l10.7-25h2.8l10.7,25H185.3z M175.9,179.9l-4.9,11.5h9.7
				L175.9,179.9z"/>
			<path class="st5" d="M203.2,202.5c-7.1,0-13.4-5.7-13.4-12.9c0-7.3,6.2-12.9,13.4-12.9c3.9,0,7.6,1.7,10.2,4.6
				c0.6,0.7,1.2,1.6,1.6,2.5H212c-1.8-3-5.4-4.8-8.9-4.8c-5.9,0-10.9,4.7-10.9,10.7c0,6,5.1,10.6,11,10.6c4.4,0,9-3,10.1-7.4h-13.9
				v-2.3h17C215.8,197.4,209.9,202.5,203.2,202.5z"/>
			<path class="st5" d="M220.2,202.1v-25h13.7v2.3h-11.2v9h10.8v2.3h-10.8v9.2h104.5v2.3H220.2z"/>
		</g>
	</g>
	<rect x="11.1" y="145.1" class="st5" width="58.7" height="58.7"/>
	<path d="M110.8,128.1V10.5h30.1v117.5H110.8z"/>
	<path d="M196.4,128.1c-22.8,0-40.9-11.8-40.9-36v-3.7h28.8c0,7.4,3.4,15.5,11.8,15.5c6,0,11-4.7,11-10.9c0-7.4-6.1-9.8-12.1-12.4
		c-3.4-1.5-6.7-2.9-10.1-4.3c-14.7-6.1-27.7-14.7-27.7-32.5c0-21.2,20.4-33.4,39.7-33.4c11,0,23.4,4.1,30.6,12.9
		c5.8,7.2,7.2,13.5,7.5,22.4h-28.7c-0.9-6.3-3.1-11-10.4-11c-5.1,0-10,3.5-10,8.9c0,1.7,0.2,3.4,1.1,4.8
		c2.8,4.6,17.6,10.4,22.4,12.6c15,6.9,26.5,14.7,26.5,32.5C235.9,117,218.7,128.1,196.4,128.1z"/>
	<path d="M287.8,128.1c-22.8,0-40.9-11.8-40.9-36v-3.7h28.8c0,7.3,3.4,15.5,11.8,15.5c6,0,11-4.7,11-10.9c0-7.3-6.1-9.8-12.1-12.4
		c-3.4-1.5-6.7-2.9-10.1-4.3c-14.7-6.1-27.7-14.7-27.7-32.4c0-21.1,20.4-33.4,39.6-33.4c11,0,23.4,4.1,30.6,12.9
		c5.8,7.2,7.2,13.5,7.5,22.3h-28.6c-0.9-6.3-3.1-11-10.4-11c-5.1,0-9.9,3.5-9.9,8.9c0,1.7,0.2,3.4,1.1,4.7
		c2.8,4.6,17.6,10.4,22.3,12.5c15,6.9,26.5,14.7,26.5,32.4C327.3,117,310.2,128.1,287.8,128.1z"/>
	<polygon class="st6" points="20.1,69.3 56.4,69.3 95,128.1 58.7,128.1 	"/>
	<polygon class="st7" points="41.1,99.5 58.7,72.8 66.2,84.3 	"/>
	<polygon points="99.6,10.5 63.7,10.5 41.3,44.8 41.3,10.5 11.1,10.5 11.1,128.1 41.3,128.1 41.3,99.4 	"/>
</g>
</svg>
